<svg width="50" height="50" viewBox="0 0 50 50" fill="none" xmlns="http://www.w3.org/2000/svg">
<g clip-path="url(#clip0)">
<path d="M34.375 0H15.625C11.481 0 7.50671 1.6462 4.57646 4.57646C1.6462 7.50671 0 11.481 0 15.625L0 34.375C0 38.519 1.6462 42.4933 4.57646 45.4235C7.50671 48.3538 11.481 50 15.625 50H34.375C38.519 50 42.4933 48.3538 45.4235 45.4235C48.3538 42.4933 50 38.519 50 34.375V15.625C50 11.481 48.3538 7.50671 45.4235 4.57646C42.4933 1.6462 38.519 0 34.375 0V0ZM45.3125 34.375C45.3125 40.4062 40.4062 45.3125 34.375 45.3125H15.625C9.59375 45.3125 4.6875 40.4062 4.6875 34.375V15.625C4.6875 9.59375 9.59375 4.6875 15.625 4.6875H34.375C40.4062 4.6875 45.3125 9.59375 45.3125 15.625V34.375Z" fill="url(#paint0_linear)"/>
<path d="M25 12.5C21.6848 12.5 18.5054 13.817 16.1612 16.1612C13.817 18.5054 12.5 21.6848 12.5 25C12.5 28.3152 13.817 31.4946 16.1612 33.8388C18.5054 36.183 21.6848 37.5 25 37.5C28.3152 37.5 31.4946 36.183 33.8388 33.8388C36.183 31.4946 37.5 28.3152 37.5 25C37.5 21.6848 36.183 18.5054 33.8388 16.1612C31.4946 13.817 28.3152 12.5 25 12.5ZM25 32.8125C22.9288 32.81 20.9431 31.9861 19.4785 30.5215C18.0139 29.0569 17.19 27.0712 17.1875 25C17.1875 20.6906 20.6937 17.1875 25 17.1875C29.3063 17.1875 32.8125 20.6906 32.8125 25C32.8125 29.3063 29.3063 32.8125 25 32.8125Z" fill="url(#paint1_linear)"/>
<path d="M38.4372 13.225C39.3571 13.225 40.1028 12.4793 40.1028 11.5594C40.1028 10.6395 39.3571 9.8938 38.4372 9.8938C37.5173 9.8938 36.7715 10.6395 36.7715 11.5594C36.7715 12.4793 37.5173 13.225 38.4372 13.225Z" fill="url(#paint2_linear)"/>
</g>
<defs>
<linearGradient id="paint0_linear" x1="4.575" y1="45.425" x2="45.425" y2="4.575" gradientUnits="userSpaceOnUse">
<stop stop-color="#FFC107"/>
<stop offset="0.507" stop-color="#F44336"/>
<stop offset="0.99" stop-color="#9C27B0"/>
</linearGradient>
<linearGradient id="paint1_linear" x1="16.1625" y1="33.8375" x2="33.8375" y2="16.1625" gradientUnits="userSpaceOnUse">
<stop stop-color="#FFC107"/>
<stop offset="0.507" stop-color="#F44336"/>
<stop offset="0.99" stop-color="#9C27B0"/>
</linearGradient>
<linearGradient id="paint2_linear" x1="37.259" y1="12.7375" x2="39.6153" y2="10.3813" gradientUnits="userSpaceOnUse">
<stop stop-color="#FFC107"/>
<stop offset="0.507" stop-color="#F44336"/>
<stop offset="0.99" stop-color="#9C27B0"/>
</linearGradient>
<clipPath id="clip0">
<rect width="50" height="50" fill="white"/>
</clipPath>
</defs>
</svg>
