<svg width="50" height="50" viewBox="0 0 50 50" fill="none" xmlns="http://www.w3.org/2000/svg">
<path fill-rule="evenodd" clip-rule="evenodd" d="M50 50H38.9489V32.4225C38.9489 27.8225 37.2216 24.6812 33.4193 24.6812C30.5125 24.6812 28.8954 26.8013 28.1432 28.8438C27.8602 29.5763 27.9046 30.5975 27.9046 31.6188V50H16.9568C16.9568 50 17.0977 18.8637 16.9568 16.0337H27.9046V21.365C28.5523 19.0338 32.05 15.7075 37.6318 15.7075C44.558 15.7075 50 20.5925 50 31.1137V50V50ZM5.88636 11.785H5.81478C2.2875 11.785 0 9.18873 0 5.89748C0 2.54248 2.35456 0 5.95342 0C9.54888 0 11.7602 2.53624 11.8295 5.88749C11.8295 9.17874 9.54886 11.785 5.88636 11.785V11.785ZM1.26135 16.0337H11.0068V50H1.26135V16.0337Z" fill="#007EBB"/>
</svg>
