<svg width="50" height="50" viewBox="0 0 50 50" fill="none" xmlns="http://www.w3.org/2000/svg">
<g clip-path="url(#clip0)">
<path d="M49.0237 35.0031C42.3393 33.9031 39.3268 27.0562 39.205 26.7656L39.1768 26.7094C38.8362 26.0156 38.755 25.4438 38.9425 25.0094C39.3081 24.1531 40.7081 23.7094 41.6331 23.4156C41.9018 23.3313 42.155 23.25 42.3643 23.1688C43.2768 22.8094 43.9268 22.4187 44.3581 21.9781C44.8706 21.45 44.9706 20.9438 44.9643 20.6156C44.9487 19.8156 44.3362 19.1031 43.3581 18.7562C43.0122 18.6185 42.643 18.5484 42.2706 18.55C41.9222 18.5451 41.5768 18.6155 41.2581 18.7562C40.4768 19.1219 39.7768 19.3219 39.1737 19.35C38.9362 19.3433 38.702 19.2925 38.4831 19.2L38.5425 18.2344L38.5518 18.0906C38.7675 14.7063 39.0331 10.4969 37.9143 7.99688C37.1945 6.34934 36.1546 4.86118 34.855 3.61875C33.783 2.61007 32.5451 1.79393 31.1956 1.20625C29.3942 0.42033 27.4515 0.00988935 25.4862 0L25.3612 0L24.5018 0.009375C23.3925 0.009375 21.1706 0.165625 18.7862 1.21562C17.4407 1.80234 16.2069 2.6175 15.1393 3.625C13.8461 4.86657 12.8107 6.35119 12.0925 7.99375C10.9737 10.4906 11.2393 14.7 11.4518 18.0812V18.0875L11.5206 19.1969C11.2614 19.3048 10.9825 19.357 10.7018 19.35C10.0706 19.35 9.32059 19.15 8.47372 18.7531C8.20756 18.6337 7.91852 18.574 7.62684 18.5781C7.09972 18.5835 6.58335 18.7279 6.12996 18.9969C5.54871 19.3375 5.17371 19.8156 5.07059 20.35C5.00496 20.7 5.00809 21.3969 5.78309 22.1031C6.21121 22.4906 6.83621 22.85 7.64559 23.1688C7.85809 23.2531 8.11121 23.3313 8.37684 23.4156C9.30184 23.7094 10.705 24.1531 11.0706 25.0094C11.255 25.4438 11.1737 26.0156 10.8331 26.7094L10.8081 26.7656C10.1554 28.1753 9.30754 29.4861 8.28934 30.6594C7.41085 31.6944 6.38785 32.5974 5.25184 33.3406C3.95964 34.182 2.50732 34.747 0.986214 35C0.701195 35.0459 0.443368 35.196 0.262668 35.4212C0.0819672 35.6463 -0.00874875 35.9305 0.00808902 36.2188C0.017464 36.3906 0.058089 36.5625 0.129964 36.7281V36.7312C0.370589 37.2906 0.923714 37.7625 1.82371 38.1781C2.92371 38.6875 4.56746 39.1156 6.71434 39.45C6.82372 39.6562 6.93621 40.1719 7.01434 40.525C7.09559 40.9 7.17996 41.2875 7.30184 41.6969C7.43309 42.1406 7.77059 42.6719 8.64246 42.6719C8.97371 42.6719 9.35184 42.5969 9.79246 42.5125C10.4362 42.3875 11.3175 42.2156 12.4143 42.2156C13.0237 42.2156 13.655 42.2688 14.2893 42.375C15.5143 42.5781 16.5706 43.3219 17.7925 44.1844C19.58 45.4469 21.605 46.875 24.6987 46.875L24.9518 46.8656C25.0518 46.8719 25.18 46.875 25.3112 46.875C28.405 46.875 30.43 45.4469 32.2175 44.1875L32.2206 44.1844C33.4425 43.325 34.4987 42.5812 35.7237 42.3781C36.3581 42.2719 36.9893 42.2188 37.5987 42.2188C38.6487 42.2188 39.48 42.3531 40.2206 42.4969C40.705 42.5906 41.08 42.6375 41.3706 42.6375H41.4268C41.7188 42.6504 42.0062 42.562 42.2403 42.3871C42.4744 42.2122 42.6408 41.9617 42.7112 41.6781C42.821 41.2942 42.9169 40.9065 42.9987 40.5156C43.0706 40.1844 43.1893 39.6531 43.2956 39.4469C45.4425 39.1094 47.0862 38.6844 48.1862 38.175C49.0831 37.7594 49.6362 37.2875 49.8768 36.7312C49.9491 36.5683 49.9915 36.3936 50.0018 36.2156C50.0178 35.9283 49.9266 35.6453 49.7459 35.4213C49.5652 35.1973 49.3079 35.0483 49.0237 35.0031V35.0031Z" fill="#FFEB3B"/>
</g>
<defs>
<clipPath id="clip0">
<rect width="50" height="50" fill="white"/>
</clipPath>
</defs>
</svg>
